<svg width="43" height="43" viewBox="0 0 43 43" fill="none" xmlns="http://www.w3.org/2000/svg">
<path d="M31.5856 11.016C29.6951 10.072 27.6874 9.384 25.5917 9C25.3278 9.496 25.0347 10.168 24.8296 10.696C22.6005 10.344 20.3875 10.344 18.1892 10.696C17.9841 10.168 17.6763 9.496 17.4271 9C15.3168 9.384 13.309 10.072 11.4317 11.016C7.63598 17.128 6.6101 23.0959 7.12304 28.9839C9.64374 30.9838 12.0765 32.1999 14.4668 33C15.053 32.136 15.5806 31.208 16.035 30.2319C15.1703 29.88 14.3496 29.448 13.5582 28.9359C13.7634 28.776 13.9686 28.6 14.1591 28.4239C18.9367 30.808 24.1114 30.808 28.8305 28.4239C29.0356 28.6 29.2262 28.776 29.4313 28.9359C28.6399 29.448 27.8193 29.88 26.9545 30.2319C27.4089 31.208 27.9365 32.136 28.5227 33C30.9115 32.1999 33.359 30.9838 35.8664 28.9839C36.4966 22.168 34.8684 16.248 31.5856 11.016ZM16.6944 25.352C15.2582 25.352 14.0858 23.928 14.0858 22.1839C14.0858 20.44 15.2289 19.016 16.6944 19.016C18.1453 19.016 19.3323 20.44 19.303 22.1839C19.303 23.928 18.1453 25.352 16.6944 25.352ZM26.3244 25.352C24.8881 25.352 23.7142 23.928 23.7142 22.1839C23.7142 20.44 24.8589 19.016 26.3244 19.016C27.7753 19.016 28.9624 20.44 28.933 22.1839C28.933 23.928 27.79 25.352 26.3244 25.352Z" stroke="white" stroke-linejoin="round"/>
<circle cx="21.2885" cy="21.2885" r="20.7885" stroke="white"/>
</svg>
