<svg width="43" height="43" viewBox="0 0 43 43" fill="none" xmlns="http://www.w3.org/2000/svg">
<circle cx="21.2885" cy="21.2885" r="20.7885" stroke="white"/>
<path d="M17.8812 33V29.3032L17.9293 26.6761C17.9871 25.8588 18.302 25.0885 18.8201 24.4922C18.8277 24.4834 18.8353 24.4748 18.843 24.4661C18.863 24.4436 18.8498 24.4072 18.8201 24.4034C15.3579 23.9665 11.7507 22.4884 11.7507 16.053C11.7281 14.4681 12.2396 12.9316 13.1848 11.7264C13.2179 11.6843 13.2515 11.6425 13.2856 11.6012C13.33 11.5474 13.3445 11.4745 13.3242 11.4075C13.323 11.4034 13.3217 11.3994 13.3205 11.3953C13.2974 11.3188 13.2758 11.2419 13.2555 11.1646C12.9081 9.83797 12.9828 8.42081 13.4718 7.14182C13.4754 7.13238 13.4791 7.12294 13.4827 7.11351C13.501 7.06644 13.5393 7.03046 13.5885 7.02157C13.8956 6.96622 15.1362 6.89217 17.5114 8.55056C17.5853 8.60217 17.6603 8.65547 17.7365 8.71049C17.7914 8.75021 17.8613 8.76239 17.9263 8.74368L17.9325 8.74191C18.06 8.70526 18.1878 8.67049 18.316 8.63757C20.5737 8.05772 22.9263 8.05772 25.184 8.63757C25.3056 8.66877 25.4267 8.70166 25.5477 8.73622L25.5556 8.73848C25.632 8.76038 25.7141 8.74608 25.7789 8.69944C25.8497 8.64832 25.9196 8.5987 25.9886 8.55056C28.3581 6.89566 29.592 6.96592 29.9004 7.02123C29.9506 7.03023 29.9897 7.06686 30.0086 7.11478C30.011 7.12095 30.0133 7.1271 30.0157 7.13327C30.513 8.41283 30.592 9.83421 30.2443 11.1646C30.2236 11.2439 30.2013 11.3229 30.1776 11.4016C30.1561 11.4723 30.1716 11.5492 30.2183 11.606L30.2227 11.6113C30.254 11.6493 30.2849 11.6877 30.3151 11.7264C31.2604 12.9316 31.7719 14.4681 31.7493 16.053C31.7493 22.5235 28.1164 23.9628 24.6377 24.355C24.6176 24.3572 24.6086 24.3816 24.6221 24.3968C24.6273 24.4025 24.6326 24.4083 24.6377 24.4141C24.9887 24.8094 25.261 25.2786 25.4373 25.7927C25.6216 26.3301 25.6966 26.904 25.6573 27.4756V33" stroke="white" stroke-linecap="round" stroke-linejoin="round"/>
<path d="M10 29C10.5336 29.0983 11.0431 29.3539 11.4898 29.7471C11.9366 30.1405 12.3089 30.6612 12.5785 31.2702C12.8076 31.8122 13.1165 32.29 13.4875 32.6759C13.8585 33.0618 14.2842 33.3484 14.7403 33.5191C15.1963 33.6899 15.6737 33.7414 16.145 33.6707C16.6164 33.6003 17.0724 33.4089 17.487 33.1078" stroke="white" stroke-linecap="round" stroke-linejoin="round"/>
</svg>
