<svg width="43" height="43" viewBox="0 0 43 43" fill="none" xmlns="http://www.w3.org/2000/svg">
<circle cx="21.2885" cy="21.2885" r="20.7885" stroke="white"/>
<path d="M21 33.6804C18.4269 33.6804 16.5753 33.6791 15.1316 33.5352C13.7045 33.3929 12.7916 33.1195 12.0631 32.6487C11.2304 32.1108 10.5263 31.3868 10.0031 30.5305C9.54545 29.7813 9.27945 28.8425 9.14127 27.375C9.00127 25.8904 9 23.9863 9 21.3402C9 18.6942 9.00127 16.79 9.14127 15.3055C9.27945 13.8379 9.54545 12.8991 10.0031 12.1499C10.5263 11.2936 11.2304 10.5696 12.0631 10.0315C12.7916 9.56092 13.7045 9.28738 15.1316 9.14528C16.5751 9.00131 18.4267 9 21 9C23.5731 9 25.4247 9.00131 26.8684 9.14528C28.2955 9.28738 29.2084 9.56092 29.9369 10.0315C30.7695 10.5696 31.4736 11.2936 31.9967 12.1499C32.4545 12.8991 32.7204 13.8379 32.8587 15.3055C32.9987 16.79 33 18.6942 33 21.3402C33 23.9863 32.9987 25.8904 32.8587 27.375C32.7204 28.8425 32.4545 29.7813 31.9967 30.5305C31.4736 31.3867 30.7695 32.1107 29.9369 32.6487C29.2084 33.1195 28.2955 33.3929 26.8684 33.5352C25.4247 33.6791 23.5731 33.6804 21 33.6804Z" stroke="white"/>
<path d="M21 26.9494C24.0125 26.9494 26.4546 24.4381 26.4546 21.3402C26.4546 18.2424 24.0125 15.731 21 15.731C17.9876 15.731 15.5455 18.2424 15.5455 21.3402C15.5455 24.4381 17.9876 26.9494 21 26.9494Z" stroke="white"/>
<path d="M28.0909 15.731C28.9946 15.731 29.7273 14.9776 29.7273 14.0483C29.7273 13.1189 28.9946 12.3655 28.0909 12.3655C27.1872 12.3655 26.4545 13.1189 26.4545 14.0483C26.4545 14.9776 27.1872 15.731 28.0909 15.731Z" fill="white"/>
</svg>
